<mxfile host="app.diagrams.net" modified="2021-12-22T11:26:04.910Z" agent="5.0 (X11)" etag="Xq3NAax4Y7Hu5MjVuQNC" version="16.0.2" type="github" pages="5">
  <diagram name="Overview" id="X1xkp8taMzy9Tt-fy2y1">
    <mxGraphModel dx="2200" dy="764" grid="1" gridSize="10" guides="1" tooltips="1" connect="1" arrows="1" fold="1" page="1" pageScale="1" pageWidth="850" pageHeight="1100" background="none" math="0" shadow="0">
      <root>
        <mxCell id="wn8Pml6cE75ornkcrmNq-0" />
        <mxCell id="wn8Pml6cE75ornkcrmNq-1" parent="wn8Pml6cE75ornkcrmNq-0" />
        <mxCell id="MDNQT7hqEurYdyj0TWIo-0" value="MainProcess" style="rounded=0;whiteSpace=wrap;html=1;sketch=0;strokeColor=#b85450;fillColor=#f8cecc;" parent="wn8Pml6cE75ornkcrmNq-1" vertex="1">
          <mxGeometry x="-480" y="250" width="150.25" height="50" as="geometry" />
        </mxCell>
        <mxCell id="MDNQT7hqEurYdyj0TWIo-3" value="Message Queue" style="edgeStyle=orthogonalEdgeStyle;curved=0;rounded=1;sketch=0;orthogonalLoop=1;jettySize=auto;html=1;fontColor=#143642;strokeColor=#A8201A;fillColor=#FAE5C7;" parent="wn8Pml6cE75ornkcrmNq-1" source="MDNQT7hqEurYdyj0TWIo-1" target="MDNQT7hqEurYdyj0TWIo-0" edge="1">
          <mxGeometry relative="1" as="geometry" />
        </mxCell>
        <mxCell id="MDNQT7hqEurYdyj0TWIo-1" value="dSensors" style="rounded=0;whiteSpace=wrap;html=1;sketch=0;strokeColor=#6c8ebf;fillColor=#dae8fc;" parent="wn8Pml6cE75ornkcrmNq-1" vertex="1">
          <mxGeometry x="-480" y="350" width="150.25" height="50" as="geometry" />
        </mxCell>
        <mxCell id="Txhn42jraebPng0SyWWr-0" value="" style="endArrow=classic;dashed=1;html=1;rounded=0;sketch=0;fontSize=10;fontColor=#143642;strokeColor=#A8201A;fillColor=#FAE5C7;exitX=0;exitY=0.5;exitDx=0;exitDy=0;entryX=0;entryY=0.5;entryDx=0;entryDy=0;edgeStyle=orthogonalEdgeStyle;endFill=1;" parent="wn8Pml6cE75ornkcrmNq-1" source="MDNQT7hqEurYdyj0TWIo-1" target="MDNQT7hqEurYdyj0TWIo-0" edge="1">
          <mxGeometry width="50" height="50" relative="1" as="geometry">
            <mxPoint x="-510" y="350" as="sourcePoint" />
            <mxPoint x="-460" y="300" as="targetPoint" />
            <Array as="points">
              <mxPoint x="-510" y="375" />
              <mxPoint x="-510" y="275" />
            </Array>
          </mxGeometry>
        </mxCell>
        <mxCell id="Txhn42jraebPng0SyWWr-1" value="SIGUSR1" style="edgeLabel;html=1;align=center;verticalAlign=middle;resizable=0;points=[];fontSize=10;fontColor=#143642;fontStyle=2" parent="Txhn42jraebPng0SyWWr-0" vertex="1" connectable="0">
          <mxGeometry x="0.328" y="1" relative="1" as="geometry">
            <mxPoint x="1" y="31" as="offset" />
          </mxGeometry>
        </mxCell>
      </root>
    </mxGraphModel>
  </diagram>
  <diagram id="HcdjmoZaPBOQuIixv0jm" name="MaintPriority">
    <mxGraphModel dx="1350" dy="764" grid="1" gridSize="10" guides="1" tooltips="1" connect="1" arrows="1" fold="1" page="1" pageScale="1" pageWidth="850" pageHeight="1100" math="0" shadow="0">
      <root>
        <mxCell id="skMfZww8q4JZ88V34bja-0" />
        <mxCell id="skMfZww8q4JZ88V34bja-1" parent="skMfZww8q4JZ88V34bja-0" />
        <mxCell id="rdfeNp6-GMCc2yEgZiX8-3" value="tLoraRecv" style="rounded=1;whiteSpace=wrap;html=1;fillColor=#ffe6cc;strokeColor=#d79b00;" parent="skMfZww8q4JZ88V34bja-1" vertex="1">
          <mxGeometry x="130" y="240" width="220" height="30" as="geometry" />
        </mxCell>
        <mxCell id="rdfeNp6-GMCc2yEgZiX8-4" value="tRecvSensors" style="rounded=1;whiteSpace=wrap;html=1;fillColor=#fff2cc;strokeColor=#d6b656;" parent="skMfZww8q4JZ88V34bja-1" vertex="1">
          <mxGeometry x="240" y="200" width="110" height="30" as="geometry" />
        </mxCell>
        <mxCell id="rdfeNp6-GMCc2yEgZiX8-5" value="tParkDetection" style="rounded=1;whiteSpace=wrap;html=1;fillColor=#d5e8d4;strokeColor=#82b366;" parent="skMfZww8q4JZ88V34bja-1" vertex="1">
          <mxGeometry x="130" y="280" width="220" height="30" as="geometry" />
        </mxCell>
        <mxCell id="rdfeNp6-GMCc2yEgZiX8-6" value="CLoraComm::tSend" style="rounded=1;whiteSpace=wrap;html=1;fillColor=#f5f5f5;strokeColor=#666666;fontColor=#333333;" parent="skMfZww8q4JZ88V34bja-1" vertex="1">
          <mxGeometry x="130" y="200" width="110" height="30" as="geometry" />
        </mxCell>
        <mxCell id="rdfeNp6-GMCc2yEgZiX8-7" value="tIdle" style="rounded=1;whiteSpace=wrap;html=1;fillColor=#e1d5e7;strokeColor=#9673a6;" parent="skMfZww8q4JZ88V34bja-1" vertex="1">
          <mxGeometry x="130" y="320" width="220" height="30" as="geometry" />
        </mxCell>
        <mxCell id="rdfeNp6-GMCc2yEgZiX8-8" value="" style="shape=flexArrow;endArrow=classic;html=1;rounded=0;fillColor=#f5f5f5;gradientColor=#b3b3b3;strokeColor=#666666;" parent="skMfZww8q4JZ88V34bja-1" edge="1">
          <mxGeometry width="50" height="50" relative="1" as="geometry">
            <mxPoint x="370" y="350" as="sourcePoint" />
            <mxPoint x="370" y="200" as="targetPoint" />
          </mxGeometry>
        </mxCell>
        <mxCell id="rdfeNp6-GMCc2yEgZiX8-9" value="&lt;div&gt;Priority&lt;/div&gt;&lt;div&gt;Level&lt;/div&gt;" style="edgeLabel;html=1;align=center;verticalAlign=middle;resizable=0;points=[];labelBackgroundColor=default;fontStyle=1" parent="rdfeNp6-GMCc2yEgZiX8-8" vertex="1" connectable="0">
          <mxGeometry x="0.5393" y="-2" relative="1" as="geometry">
            <mxPoint x="28" y="46" as="offset" />
          </mxGeometry>
        </mxCell>
      </root>
    </mxGraphModel>
  </diagram>
  <diagram name="daemontPriority" id="WNVWv5DTp0dM6nEYobVn">
    <mxGraphModel dx="540" dy="306" grid="1" gridSize="10" guides="1" tooltips="1" connect="1" arrows="1" fold="1" page="1" pageScale="1" pageWidth="850" pageHeight="1100" math="0" shadow="0">
      <root>
        <mxCell id="G--0QG_bxzKyR1TBapxH-0" />
        <mxCell id="G--0QG_bxzKyR1TBapxH-1" parent="G--0QG_bxzKyR1TBapxH-0" />
        <mxCell id="G--0QG_bxzKyR1TBapxH-2" value="lampfISR" style="rounded=1;whiteSpace=wrap;html=1;fillColor=#ffe6cc;strokeColor=#d79b00;" parent="G--0QG_bxzKyR1TBapxH-1" vertex="1">
          <mxGeometry x="240" y="200" width="110" height="30" as="geometry" />
        </mxCell>
        <mxCell id="G--0QG_bxzKyR1TBapxH-3" value="tReadLdr" style="rounded=1;whiteSpace=wrap;html=1;fillColor=#fff2cc;strokeColor=#d6b656;" parent="G--0QG_bxzKyR1TBapxH-1" vertex="1">
          <mxGeometry x="130" y="240" width="220" height="30" as="geometry" />
        </mxCell>
        <mxCell id="G--0QG_bxzKyR1TBapxH-5" value="PirISR" style="rounded=1;whiteSpace=wrap;html=1;fillColor=#f5f5f5;strokeColor=#666666;fontColor=#333333;" parent="G--0QG_bxzKyR1TBapxH-1" vertex="1">
          <mxGeometry x="130" y="200" width="110" height="30" as="geometry" />
        </mxCell>
        <mxCell id="G--0QG_bxzKyR1TBapxH-6" value="tIdle" style="rounded=1;whiteSpace=wrap;html=1;fillColor=#e1d5e7;strokeColor=#9673a6;" parent="G--0QG_bxzKyR1TBapxH-1" vertex="1">
          <mxGeometry x="130" y="280" width="220" height="30" as="geometry" />
        </mxCell>
        <mxCell id="G--0QG_bxzKyR1TBapxH-7" value="" style="shape=flexArrow;endArrow=classic;html=1;rounded=0;fillColor=#f5f5f5;gradientColor=#b3b3b3;strokeColor=#666666;" parent="G--0QG_bxzKyR1TBapxH-1" edge="1">
          <mxGeometry width="50" height="50" relative="1" as="geometry">
            <mxPoint x="370" y="310" as="sourcePoint" />
            <mxPoint x="370" y="200" as="targetPoint" />
          </mxGeometry>
        </mxCell>
        <mxCell id="G--0QG_bxzKyR1TBapxH-8" value="&lt;div&gt;Priority&lt;/div&gt;&lt;div&gt;Level&lt;/div&gt;" style="edgeLabel;html=1;align=center;verticalAlign=middle;resizable=0;points=[];labelBackgroundColor=default;fontStyle=1" parent="G--0QG_bxzKyR1TBapxH-7" vertex="1" connectable="0">
          <mxGeometry x="0.5393" y="-2" relative="1" as="geometry">
            <mxPoint x="28" y="35" as="offset" />
          </mxGeometry>
        </mxCell>
      </root>
    </mxGraphModel>
  </diagram>
  <diagram id="zZQZrM1WZ4lBrJhfg9WA" name="MainProcess">
    <mxGraphModel dx="2200" dy="764" grid="1" gridSize="10" guides="1" tooltips="1" connect="1" arrows="1" fold="1" page="1" pageScale="1" pageWidth="850" pageHeight="1100" background="none" math="0" shadow="0">
      <root>
        <mxCell id="0Oqra8mfgf_KKJ2Kf83Z-0" />
        <mxCell id="0Oqra8mfgf_KKJ2Kf83Z-1" parent="0Oqra8mfgf_KKJ2Kf83Z-0" />
        <mxCell id="ur2-hx13VQ8dB1HA1T7C-0" style="edgeStyle=orthogonalEdgeStyle;curved=0;rounded=1;sketch=0;orthogonalLoop=1;jettySize=auto;html=1;exitX=0.5;exitY=1;exitDx=0;exitDy=0;entryX=0.5;entryY=0;entryDx=0;entryDy=0;fontColor=#143642;strokeColor=#A8201A;fillColor=#FAE5C7;labelBackgroundColor=#DAD2D8;" parent="0Oqra8mfgf_KKJ2Kf83Z-1" source="ur2-hx13VQ8dB1HA1T7C-1" edge="1">
          <mxGeometry relative="1" as="geometry">
            <mxPoint x="-424.5" y="150" as="targetPoint" />
          </mxGeometry>
        </mxCell>
        <mxCell id="ur2-hx13VQ8dB1HA1T7C-1" value="MainProcess" style="ellipse;whiteSpace=wrap;html=1;fillColor=#FAE5C7;strokeColor=#0F8B8D;fontColor=#143642;fontStyle=1" parent="0Oqra8mfgf_KKJ2Kf83Z-1" vertex="1">
          <mxGeometry x="-488" y="70" width="125.5" height="50" as="geometry" />
        </mxCell>
        <mxCell id="ur2-hx13VQ8dB1HA1T7C-2" style="edgeStyle=orthogonalEdgeStyle;rounded=1;orthogonalLoop=1;jettySize=auto;html=1;exitX=0.5;exitY=1;exitDx=0;exitDy=0;entryX=0.5;entryY=0;entryDx=0;entryDy=0;strokeColor=#A8201A;labelBackgroundColor=#DAD2D8;fontColor=#143642;" parent="0Oqra8mfgf_KKJ2Kf83Z-1" source="ur2-hx13VQ8dB1HA1T7C-9" target="ur2-hx13VQ8dB1HA1T7C-20" edge="1">
          <mxGeometry relative="1" as="geometry">
            <mxPoint x="-424.5" y="180" as="sourcePoint" />
            <mxPoint x="-424.75" y="199.9999999999999" as="targetPoint" />
          </mxGeometry>
        </mxCell>
        <mxCell id="ur2-hx13VQ8dB1HA1T7C-3" value="end" style="ellipse;whiteSpace=wrap;html=1;fillColor=#FAE5C7;strokeColor=#0F8B8D;fontColor=#143642;fontStyle=1" parent="0Oqra8mfgf_KKJ2Kf83Z-1" vertex="1">
          <mxGeometry x="-448.75" y="260" width="48" height="30" as="geometry" />
        </mxCell>
        <mxCell id="ur2-hx13VQ8dB1HA1T7C-9" value="&lt;div&gt;&lt;b&gt;Create&lt;/b&gt; &lt;b&gt;CLocalSystem &lt;br&gt;&lt;/b&gt;&lt;/div&gt;&lt;div&gt;&lt;i&gt;localSys&lt;/i&gt;&lt;br&gt;&lt;/div&gt;" style="rounded=0;whiteSpace=wrap;html=1;sketch=0;fontColor=#143642;strokeColor=#0F8B8D;fillColor=#FAE5C7;" parent="0Oqra8mfgf_KKJ2Kf83Z-1" vertex="1">
          <mxGeometry x="-500" y="150" width="150.25" height="40" as="geometry" />
        </mxCell>
        <mxCell id="TKmFw9rMKiPm6f0lpF6J-0" style="edgeStyle=orthogonalEdgeStyle;curved=0;rounded=1;sketch=0;orthogonalLoop=1;jettySize=auto;html=1;exitX=0.5;exitY=1;exitDx=0;exitDy=0;entryX=0.5;entryY=0;entryDx=0;entryDy=0;fontColor=#143642;strokeColor=#A8201A;fillColor=#FAE5C7;" parent="0Oqra8mfgf_KKJ2Kf83Z-1" source="ur2-hx13VQ8dB1HA1T7C-20" target="ur2-hx13VQ8dB1HA1T7C-3" edge="1">
          <mxGeometry relative="1" as="geometry" />
        </mxCell>
        <mxCell id="ur2-hx13VQ8dB1HA1T7C-20" value="&lt;i&gt;localSys&lt;/i&gt;&lt;b&gt;.run()&lt;/b&gt;" style="shape=process;whiteSpace=wrap;html=1;backgroundOutline=1;rounded=0;sketch=0;fontColor=#143642;strokeColor=#0F8B8D;fillColor=#FAE5C7;" parent="0Oqra8mfgf_KKJ2Kf83Z-1" vertex="1">
          <mxGeometry x="-499.75" y="210" width="150" height="30" as="geometry" />
        </mxCell>
      </root>
    </mxGraphModel>
  </diagram>
  <diagram id="xHVjVa41gpsMB4-rL8iE" name="dSensors">
    <mxGraphModel dx="1350" dy="764" grid="1" gridSize="10" guides="1" tooltips="1" connect="1" arrows="1" fold="1" page="1" pageScale="1" pageWidth="850" pageHeight="1100" math="0" shadow="0">
      <root>
        <mxCell id="9kqkc8BBmVhAWw2xq4RF-0" />
        <mxCell id="9kqkc8BBmVhAWw2xq4RF-1" parent="9kqkc8BBmVhAWw2xq4RF-0" />
        <mxCell id="mb4ViWMH9S8Qe_Za26M7-0" style="edgeStyle=orthogonalEdgeStyle;curved=0;rounded=1;sketch=0;orthogonalLoop=1;jettySize=auto;html=1;exitX=0.5;exitY=1;exitDx=0;exitDy=0;fontColor=#143642;strokeColor=#A8201A;fillColor=#FAE5C7;" parent="9kqkc8BBmVhAWw2xq4RF-1" source="7maBDprV5Hv3Py0d4x8e-5" target="iY8Z7uKcHqI_24tWHkz3-1" edge="1">
          <mxGeometry relative="1" as="geometry" />
        </mxCell>
        <mxCell id="7maBDprV5Hv3Py0d4x8e-7" value="Daemon sucessfully created" style="edgeLabel;html=1;align=center;verticalAlign=middle;resizable=0;points=[];fontSize=10;fontColor=#143642;" parent="mb4ViWMH9S8Qe_Za26M7-0" vertex="1" connectable="0">
          <mxGeometry x="0.6921" y="1" relative="1" as="geometry">
            <mxPoint x="-1" y="-12" as="offset" />
          </mxGeometry>
        </mxCell>
        <mxCell id="j6F3Y4PbCdNmKuD_g-Pd-4" style="edgeStyle=orthogonalEdgeStyle;curved=0;rounded=1;sketch=0;orthogonalLoop=1;jettySize=auto;html=1;exitX=0.5;exitY=1;exitDx=0;exitDy=0;entryX=0.5;entryY=0;entryDx=0;entryDy=0;fontSize=10;fontColor=#143642;strokeColor=#A8201A;fillColor=#FAE5C7;" parent="9kqkc8BBmVhAWw2xq4RF-1" source="J8CmrTiL3LmIWZ7oQUTI-0" target="7maBDprV5Hv3Py0d4x8e-5" edge="1">
          <mxGeometry relative="1" as="geometry" />
        </mxCell>
        <mxCell id="J8CmrTiL3LmIWZ7oQUTI-0" value="dSensors" style="ellipse;whiteSpace=wrap;html=1;fontFamily=Helvetica;fillColor=#FAE5C7;strokeColor=#0F8B8D;fontColor=#143642;fontStyle=1" parent="9kqkc8BBmVhAWw2xq4RF-1" vertex="1">
          <mxGeometry x="369.99999999999994" y="20" width="100" height="50" as="geometry" />
        </mxCell>
        <mxCell id="mb4ViWMH9S8Qe_Za26M7-2" style="edgeStyle=orthogonalEdgeStyle;curved=0;rounded=1;sketch=0;orthogonalLoop=1;jettySize=auto;html=1;exitX=0.5;exitY=1;exitDx=0;exitDy=0;entryX=0.5;entryY=0;entryDx=0;entryDy=0;fontColor=#143642;strokeColor=#A8201A;fillColor=#FAE5C7;" parent="9kqkc8BBmVhAWw2xq4RF-1" source="_14yVaTyilGKmTWnTQYC-0" edge="1">
          <mxGeometry relative="1" as="geometry">
            <mxPoint x="420" y="260" as="targetPoint" />
          </mxGeometry>
        </mxCell>
        <mxCell id="_14yVaTyilGKmTWnTQYC-0" value="&lt;div&gt;Recv &lt;i&gt; &lt;/i&gt;&lt;span style=&quot;font-weight: normal&quot;&gt;&lt;i&gt;mainPID&lt;b&gt; from &lt;/b&gt;&lt;/i&gt;&lt;/span&gt;&lt;span style=&quot;font-weight: normal&quot;&gt;&lt;i&gt;msgqSensors&lt;/i&gt;&lt;/span&gt;&lt;span style=&quot;font-weight: normal&quot;&gt;&lt;/span&gt;&lt;/div&gt;" style="shape=process;whiteSpace=wrap;html=1;backgroundOutline=1;rounded=0;sketch=0;fontColor=#143642;strokeColor=#0F8B8D;fillColor=#FAE5C7;fontStyle=1;size=0;" parent="9kqkc8BBmVhAWw2xq4RF-1" vertex="1">
          <mxGeometry x="340" y="210" width="160" height="30" as="geometry" />
        </mxCell>
        <mxCell id="5Aqoa35JuhMSlnMx8uGE-0" value="" style="endArrow=none;dashed=1;html=1;dashPattern=1 3;strokeWidth=2;rounded=1;sketch=0;fontColor=#143642;fillColor=#FAE5C7;curved=0;entryX=0;entryY=0.5;entryDx=0;entryDy=0;exitX=1;exitY=1;exitDx=0;exitDy=0;exitPerimeter=0;" parent="9kqkc8BBmVhAWw2xq4RF-1" source="5Aqoa35JuhMSlnMx8uGE-1" target="_14yVaTyilGKmTWnTQYC-0" edge="1">
          <mxGeometry width="50" height="50" relative="1" as="geometry">
            <mxPoint x="270" y="160" as="sourcePoint" />
            <mxPoint x="300" y="195" as="targetPoint" />
          </mxGeometry>
        </mxCell>
        <mxCell id="5Aqoa35JuhMSlnMx8uGE-1" value="Wait for the main process to send his PID" style="shape=note;whiteSpace=wrap;html=1;backgroundOutline=1;darkOpacity=0.05;rounded=0;sketch=0;fontColor=#143642;strokeColor=#0F8B8D;fillColor=#FAE5C7;size=11;fontSize=10;" parent="9kqkc8BBmVhAWw2xq4RF-1" vertex="1">
          <mxGeometry x="200" y="160" width="90" height="50" as="geometry" />
        </mxCell>
        <mxCell id="7maBDprV5Hv3Py0d4x8e-5" value="daemonize()" style="shape=process;whiteSpace=wrap;html=1;backgroundOutline=1;rounded=0;sketch=0;fontColor=#143642;strokeColor=#0F8B8D;fillColor=#FAE5C7;fontStyle=1" parent="9kqkc8BBmVhAWw2xq4RF-1" vertex="1">
          <mxGeometry x="340" y="90" width="160" height="30" as="geometry" />
        </mxCell>
        <mxCell id="UsnmP4wXMrgOg7MZaw6e-1" style="edgeStyle=orthogonalEdgeStyle;curved=0;rounded=1;sketch=0;orthogonalLoop=1;jettySize=auto;html=1;exitX=0.5;exitY=1;exitDx=0;exitDy=0;entryX=0.5;entryY=0;entryDx=0;entryDy=0;fontSize=10;fontColor=#143642;strokeColor=#A8201A;fillColor=#FAE5C7;" parent="9kqkc8BBmVhAWw2xq4RF-1" target="UsnmP4wXMrgOg7MZaw6e-0" edge="1">
          <mxGeometry relative="1" as="geometry">
            <mxPoint x="420" y="330" as="sourcePoint" />
            <mxPoint x="170" y="640" as="targetPoint" />
          </mxGeometry>
        </mxCell>
        <mxCell id="UsnmP4wXMrgOg7MZaw6e-0" value="end" style="ellipse;whiteSpace=wrap;html=1;fillColor=#FAE5C7;strokeColor=#0F8B8D;fontColor=#143642;fontStyle=1" parent="9kqkc8BBmVhAWw2xq4RF-1" vertex="1">
          <mxGeometry x="396" y="370" width="48" height="30" as="geometry" />
        </mxCell>
        <mxCell id="iY8Z7uKcHqI_24tWHkz3-2" value="Message queue opened" style="edgeStyle=orthogonalEdgeStyle;curved=0;rounded=1;sketch=0;orthogonalLoop=1;jettySize=auto;html=1;exitX=0.5;exitY=1;exitDx=0;exitDy=0;entryX=0.5;entryY=0;entryDx=0;entryDy=0;fontSize=10;fontColor=#143642;strokeColor=#A8201A;fillColor=#FAE5C7;" parent="9kqkc8BBmVhAWw2xq4RF-1" source="iY8Z7uKcHqI_24tWHkz3-1" target="_14yVaTyilGKmTWnTQYC-0" edge="1">
          <mxGeometry x="-0.3333" relative="1" as="geometry">
            <Array as="points">
              <mxPoint x="420" y="190" />
              <mxPoint x="420" y="190" />
            </Array>
            <mxPoint as="offset" />
          </mxGeometry>
        </mxCell>
        <mxCell id="iY8Z7uKcHqI_24tWHkz3-1" value="&lt;div&gt;Open &lt;span style=&quot;font-weight: normal&quot;&gt;&lt;i&gt;msgqSensors&lt;/i&gt;&lt;/span&gt;&lt;/div&gt;" style="shape=process;whiteSpace=wrap;html=1;backgroundOutline=1;rounded=0;sketch=0;fontColor=#143642;strokeColor=#0F8B8D;fillColor=#FAE5C7;fontStyle=1;size=0;" parent="9kqkc8BBmVhAWw2xq4RF-1" vertex="1">
          <mxGeometry x="340" y="150" width="160" height="30" as="geometry" />
        </mxCell>
        <mxCell id="w1qIotAO_QPZCLmvZb7d-2" style="edgeStyle=orthogonalEdgeStyle;rounded=0;sketch=0;orthogonalLoop=1;jettySize=auto;html=1;exitX=0.5;exitY=1;exitDx=0;exitDy=0;entryX=0.5;entryY=0;entryDx=0;entryDy=0;fontSize=10;fontColor=#143642;endArrow=classic;endFill=1;strokeColor=#A8201A;fillColor=#FAE5C7;" parent="9kqkc8BBmVhAWw2xq4RF-1" source="w1qIotAO_QPZCLmvZb7d-0" target="w1qIotAO_QPZCLmvZb7d-1" edge="1">
          <mxGeometry relative="1" as="geometry" />
        </mxCell>
        <mxCell id="w1qIotAO_QPZCLmvZb7d-0" value="Create CSensors &lt;i&gt;&lt;span style=&quot;font-weight: normal&quot;&gt;sensors&lt;/span&gt;&lt;/i&gt;" style="shape=process;whiteSpace=wrap;html=1;backgroundOutline=1;rounded=0;sketch=0;fontColor=#143642;strokeColor=#0F8B8D;fillColor=#FAE5C7;fontStyle=1;size=0;" parent="9kqkc8BBmVhAWw2xq4RF-1" vertex="1">
          <mxGeometry x="340" y="260" width="160" height="30" as="geometry" />
        </mxCell>
        <mxCell id="w1qIotAO_QPZCLmvZb7d-1" value="&lt;i&gt;&lt;span style=&quot;font-weight: normal&quot;&gt;sensors.&lt;/span&gt;&lt;/i&gt;&lt;span style=&quot;font-weight: normal&quot;&gt;&lt;b&gt;run()&lt;/b&gt;&lt;/span&gt;" style="shape=process;whiteSpace=wrap;html=1;backgroundOutline=1;rounded=0;sketch=0;fontColor=#143642;strokeColor=#0F8B8D;fillColor=#FAE5C7;fontStyle=1;size=0;" parent="9kqkc8BBmVhAWw2xq4RF-1" vertex="1">
          <mxGeometry x="340" y="310" width="160" height="30" as="geometry" />
        </mxCell>
      </root>
    </mxGraphModel>
  </diagram>
</mxfile>
